<svg width="1399" height="772" viewBox="0 0 1399 772" fill="none" xmlns="http://www.w3.org/2000/svg">
<rect opacity="0.306627" x="1255.2" y="160.021" width="60.8122" height="60.8122" transform="rotate(45 1255.2 160.021)" fill="white"/>
<rect opacity="0.418953" x="1322" y="538" width="31" height="31" fill="white"/>
<rect opacity="0.642623" x="1306" width="32" height="32" fill="#F4F4F4"/>
<rect opacity="0.344495" y="169" width="17" height="17" fill="#F4F4F4"/>
<rect opacity="0.302394" x="281.747" y="618.912" width="41.9022" height="41.9022" transform="rotate(45 281.747 618.912)" fill="white"/>
<rect opacity="0.0607407" x="75.7063" y="398.532" width="41.9022" height="39.8011" transform="rotate(45 75.7063 398.532)" fill="black"/>
<ellipse cx="1389" cy="395.5" rx="19" ry="19.5" fill="#AFCBAD"/>
<path d="M47.5 766C47.5 769.079 45.2214 771.5 42.5 771.5C39.7786 771.5 37.5 769.079 37.5 766C37.5 762.921 39.7786 760.5 42.5 760.5C45.2214 760.5 47.5 762.921 47.5 766Z" stroke="#707070"/>
<circle cx="1261" cy="533" r="5.5" stroke="#707070"/>
</svg>
